<?xml version="1.0" encoding="utf-8"?>
<svg xmlns="http://www.w3.org/2000/svg"
	xmlns:xlink="http://www.w3.org/1999/xlink"
	width="30px" height="30px">
<path fill="rgb(255,255,255)" fill-rule="evenodd" d="M 28.7 18.91C 28.7 18.91 18.91 18.91 18.91 18.91 18.91 18.91 18.91 28.7 18.91 28.7 18.91 29.42 18.33 30 17.61 30 17.61 30 12.39 30 12.39 30 11.67 30 11.09 29.42 11.09 28.7 11.09 28.7 11.09 18.91 11.09 18.91 11.09 18.91 1.3 18.91 1.3 18.91 0.58 18.91-0 18.33-0 17.61-0 17.61-0 12.39-0 12.39-0 11.67 0.58 11.09 1.3 11.09 1.3 11.09 11.09 11.09 11.09 11.09 11.09 11.09 11.09 1.3 11.09 1.3 11.09 0.58 11.67-0 12.39-0 12.39-0 17.61-0 17.61-0 18.33-0 18.91 0.58 18.91 1.3 18.91 1.3 18.91 11.09 18.91 11.09 18.91 11.09 28.7 11.09 28.7 11.09 29.42 11.09 30 11.67 30 12.39 30 12.39 30 17.61 30 17.61 30 18.33 29.42 18.91 28.7 18.91Z"/>
</svg>