<?xml version="1.0" encoding="utf-8"?>
<svg xmlns="http://www.w3.org/2000/svg"
	xmlns:xlink="http://www.w3.org/1999/xlink"
	width="24px" height="30px">
<path fill="rgb(255,255,255)" fill-rule="evenodd" d="M 16.57 8.19C 16.57 8.19 24 13.95 23.94 19.94 23.9 25.15 18.03 30 11.4 29.9 5.3 29.82-0 24.44 0.34 19.58 0.76 13.57 7.72 8.19 7.72 8.19 7.72 8.19 4.4 2.14 4.4 2.14 4.4 2.14 8.08 1.07 8.08 1.07 8.08 1.07 12.51 2.49 12.51 2.49 12.51 2.49 16.94-0 16.94-0 16.94-0 21.36 2.49 21.36 2.49 21.36 2.49 16.2 8.19 16.2 8.19 16.2 8.19 16.57 8.19 16.57 8.19ZM 12.97 15.33C 12.48 16.21 12.18 16.79 12.07 17.08 12.07 17.08 12.04 17.08 12.04 17.08 11.72 16.38 10.82 14.71 9.32 12.08 9.32 12.08 7.61 12.08 7.61 12.08 7.61 12.08 10 17 10 17 10 17 8 17 8 17 8 17 8 19 8 19 8 19 11 19 11 19 11 19 11 20 11 20 11 20 8 20 8 20 8 20 8 22 8 22 8 22 11 22 11 22 11 22 11 25 11 25 11 25 13 25 13 25 13 25 13 22 13 22 13 22 16 22 16 22 16 22 16 20 16 20 16 20 13 20 13 20 13 20 13 19 13 19 13 19 16 19 16 19 16 19 16 17 16 17 16 17 14 17 14 17 14 17 16.42 12.08 16.42 12.08 16.42 12.08 14.79 12.08 14.79 12.08 14.79 12.08 12.97 15.33 12.97 15.33Z"/>
</svg>