<?xml version="1.0" encoding="utf-8"?>
<svg xmlns="http://www.w3.org/2000/svg"
	xmlns:xlink="http://www.w3.org/1999/xlink"
	width="14px" height="24px">
<path fill="rgb(171,173,177)" fill-rule="evenodd" d="M 10.18 11.9C 10.18 11.9 0.31 21.68 0.31 21.68-0 21.98 0.09 22.57 0.51 22.99 0.51 22.99 1.02 23.49 1.02 23.49 1.44 23.91 2.03 24 2.34 23.7 2.34 23.7 12.7 13.43 12.7 13.43 12.8 13.38 12.91 13.31 13 13.21 13 13.21 13.5 12.72 13.5 12.72 13.91 12.31 14 11.74 13.7 11.44 13.7 11.44 2.45 0.3 2.45 0.3 2.15-0 1.57 0.09 1.16 0.5 1.16 0.5 0.66 0.99 0.66 0.99 0.25 1.4 0.16 1.97 0.46 2.27 0.46 2.27 10.18 11.9 10.18 11.9Z"/>
</svg>